<?xml version="1.0" standalone="no"?><!DOCTYPE svg PUBLIC "-//W3C//DTD SVG 1.1//EN" "http://www.w3.org/Graphics/SVG/1.1/DTD/svg11.dtd"><svg t="1555218327883" class="icon" style="" viewBox="0 0 1024 1024" version="1.1" xmlns="http://www.w3.org/2000/svg" p-id="3332" xmlns:xlink="http://www.w3.org/1999/xlink" width="144" height="144"><defs><style type="text/css"></style></defs><path d="M667.503504 699.492101c-51.57097 0-93.411569 41.840599-93.411569 93.411569s41.840599 93.411569 93.411569 93.411569 93.411569-41.840599 93.411569-93.411569-41.718969-93.411569-93.411569-93.411569z m0 124.548759c-17.14978 0-31.13719-13.987409-31.13719-31.13719s13.987409-31.13719 31.13719-31.137189c17.14978 0 31.13719 13.987409 31.13719 31.137189 0.12163 17.14978-13.74415 31.13719-31.13719 31.13719z" p-id="3333"></path><path d="M996.633329 845.690937l0.851408-1.459556-298.722414-518.993704V76.626678h20.79867c22.866374 0 41.47571-13.987409 41.47571-31.13719 0-17.14978-18.609336-31.13719-41.47571-31.13719H304.195748c-22.866374 0-41.47571 13.987409-41.47571 31.13719C262.720038 62.639268 281.329374 76.626678 304.195748 76.626678H325.116047v249.340777L31.258819 837.055232l0.608149 1.094667c-10.46015 17.636299-18.122817 37.705191-18.122818 60.328305 0 62.15275 45.489488 112.385794 101.682385 112.385794h803.850339c50.841193-6.081482 90.978976-54.490082 90.978976-112.385794-0.12163-19.460744-5.716593-36.853783-13.622521-52.787267zM636.487944 76.626678v248.610999c0 10.946668 2.919112 21.650077 8.270816 31.137189l54.125193 94.019718H325.359306l53.638675-93.411569c5.473334-9.487112 8.270816-20.190521 8.270816-31.13719V76.626678H636.487944z m277.802114 871.962941H115.304906c-21.406818 0-39.408006-22.988003-39.408006-50.233045 0-8.635705 3.040741-17.757928 9.365483-28.461337 1.946074-3.284 3.52726-6.93289 4.986815-10.581779l199.350992-346.766125h445.164509l202.513363 351.75294c0.973037 3.040741 2.189334 6.081482 3.648889 9.000594 4.743556 9.608742 6.93289 17.514669 6.93289 25.055707 0 27.245041-17.028151 46.584155-33.569783 50.233045z" p-id="3334"></path><path d="M449.664806 574.943342c-34.42119 0-62.274379 27.853189-62.27438 62.27438 0 34.42119 27.853189 62.274379 62.27438 62.274379 34.42119 0 62.274379-27.853189 62.274379-62.274379 0-34.54282-27.853189-62.274379-62.274379-62.27438z" p-id="3335"></path></svg>