<?xml version="1.0" standalone="no"?><!DOCTYPE svg PUBLIC "-//W3C//DTD SVG 1.1//EN" "http://www.w3.org/Graphics/SVG/1.1/DTD/svg11.dtd"><svg t="1555218453938" class="icon" style="" viewBox="0 0 1024 1024" version="1.1" xmlns="http://www.w3.org/2000/svg" p-id="4325" xmlns:xlink="http://www.w3.org/1999/xlink" width="144" height="144"><defs><style type="text/css"></style></defs><path d="M587.145363 846.593929c-63.550887 0-161.566444 0.014326-294.076347-0.010233-39.624138-0.00614-79.344465 1.474572-118.796689-1.113347-11.369862-0.753147-24.670687-5.517622-24.862043-21.526093 0.532115-13.666142 14.105137-18.894171 25.274433-19.00571 136.60821-1.339497 273.260422-2.195997 409.845097 0.184193 37.750479 0.655934 53.87049-13.101282 61.296562-48.019273 15.151971-71.261435 7.733062-138.193298-30.464599-201.065738-11.661501-19.197067-25.524118-20.400465-48.698742-22.410222-65.920844-5.729444-83.632083 39.476783-107.548599 82.621064-20.868112 37.650196-21.592607 37.240877-66.44989 21.097331-4.859641 6.649389-11.305394 13.397015-15.336164 21.375667-11.664571 23.099925-26.976177 28.588894-49.414028 13.870803-15.960376-10.465266-33.058659-19.165345-49.512264-28.884627-50.684963-29.941693-50.661427-29.983649-24.028056-86.267075-43.810449-21.59363-27.983101-49.069176-8.793198-81.237565 60.824821-101.986975 119.91106-205.028971 178.070191-308.567267 16.334903-29.071891 32.166343-48.954567 69.134-21.749172 12.613169-20.919277 23.575759-39.086906 33.967347-56.321288-2.379167-4.434973-3.06273-7.559101-5.005973-9.066418-20.35237-15.767996-48.137975-30.073699-27.795838-61.701788 20.81183-32.3577 46.817921-16.024844 71.194921-2.010781 44.966775 25.844409 90.479992 50.77399 134.964794 77.418619 23.504127 14.069322 58.115129 25.407462 40.1276 63.457767-17.902595 37.868158-47.377665 18.875751-76.315504 4.909782-11.689131 20.0638-22.364174 38.367528-34.640677 59.418811 39.444037 19.982959 36.660667 45.842718 14.57483 76.093448-22.133931 30.32236-28.846765 60.941477-18.69872 92.232901 2.704576 8.339878 5.212679 21.959971 5.372314 23.109135 8.527141 61.312934 46.232595 89.682843 68.618257 140.589861 56.605765 128.725747 36.331165 247.476388-51.947713 355.631803-8.2355 10.096879-17.057351 19.702576-31.347705 36.151064 81.171052 0 154.292843-0.681516 227.392122 0.337689 28.298278 0.391923 67.919345-9.59137 68.899665 35.80519 1.071393 49.483612-40.858235 38.099423-70.026316 38.187428-221.345455 0.689702-442.696027 0.37555-664.045574 0.365317-8.200709 0-16.401417-0.176008-24.597009-0.094143-26.412339 0.264011-47.167889-7.58059-46.034075-38.587537 1.025345-27.888958 20.157944-35.887054 45.089571-35.831796 81.972294 0.193403 163.945611 0.119726 245.928137 0.07163 62.648338-0.029676 117.226949-21.633539 165.679078-60.867799 10.488803-8.502581 14.426453-14.718092 23.797814-23.898097C593.350641 856.982449 589.727143 846.547882 587.145363 846.593929zM466.411571 181.963029C401.058657 295.728162 338.939364 403.853902 275.59109 514.140845c27.693509 16.206991 49.876558 29.412649 72.273477 42.247874 23.154159 13.260916 46.515025 26.161631 70.907375 39.846193 24.738224-42.097449 56.309008-71.149896 23.961541-126.401838-33.703337-57.553339 17.054281-138.695738 82.241422-137.053345 52.52383 1.312891 67.246015-27.54206 83.206391-68.272383C562.653752 237.99984 517.110861 211.483124 466.411571 181.963029zM600.747037 434.25915c-0.064467-32.762926-31.071414-62.384327-64.006254-61.16558-31.919728 1.186002-59.683844 29.894622-59.42495 61.469499 0.254801 31.551341 28.046546 59.6204 59.973438 60.557741C571.546211 496.129781 600.816621 468.054582 600.747037 434.25915zM589.758865 201.660489c12.686846-22.789865 23.451939-42.124054 35.062277-62.959421-20.627637-12.074914-36.682156-21.462648-55.512883-32.485612-12.599866 21.748149-23.889911 41.225599-36.561407 63.096542C552.65818 180.615345 569.791255 190.330536 589.758865 201.660489z" fill="" p-id="4326"></path></svg>