<?xml version="1.0" standalone="no"?><!DOCTYPE svg PUBLIC "-//W3C//DTD SVG 1.1//EN" "http://www.w3.org/Graphics/SVG/1.1/DTD/svg11.dtd"><svg t="1555218241068" class="icon" style="" viewBox="0 0 1024 1024" version="1.1" xmlns="http://www.w3.org/2000/svg" p-id="2310" xmlns:xlink="http://www.w3.org/1999/xlink" width="144" height="144"><defs><style type="text/css"></style></defs><path d="M334.276608 341.378048l0 449.554432c0 95.550464 77.448192 172.930048 172.930048 172.930048 95.517696 0 172.934144-77.379584 172.934144-172.930048L680.1408 341.378048 334.276608 341.378048z" p-id="2311"></path><path d="M472.620032 618.064896c0 19.085312-15.501312 34.5856-34.5856 34.5856-19.081216 0-34.5856-15.501312-34.5856-34.5856 0-19.081216 15.504384-34.5856 34.5856-34.5856C457.119744 583.479296 472.620032 598.984704 472.620032 618.064896z" p-id="2312"></path><path d="M576.379904 721.823744c0 19.085312-15.501312 34.589696-34.586624 34.589696-19.080192 0-34.584576-15.505408-34.584576-34.589696 0-19.081216 15.505408-34.5856 34.584576-34.5856C560.878592 687.238144 576.379904 702.743552 576.379904 721.823744z" p-id="2313"></path><path d="M610.965504 479.72352c0 38.199296-30.969856 69.170176-69.173248 69.170176-38.198272 0-69.172224-30.97088-69.172224-69.170176 0-38.235136 30.973952-69.173248 69.172224-69.173248C579.995648 410.550272 610.965504 441.488384 610.965504 479.72352z" p-id="2314"></path><path d="M714.728448 64.688128l-34.586624 0L334.276608 64.688128l-34.586624 0 0 34.5856 34.586624 0 0 691.726336c0 95.5136 77.448192 172.931072 172.930048 172.931072 95.517696 0 172.934144-77.417472 172.934144-172.931072L680.1408 99.274752l34.586624 0L714.727424 64.688128zM645.551104 791.000064c0 76.299264-62.045184 138.344448-138.344448 138.344448-76.296192 0-138.345472-62.045184-138.345472-138.344448L368.861184 99.274752l276.68992 0L645.551104 791.000064z" p-id="2315"></path></svg>